<?xml version="1.0" encoding="iso-8859-1"?>
<!-- Generator: Adobe Illustrator 19.0.0, SVG Export Plug-In . SVG Version: 6.00 Build 0)  -->
<svg version="1.1" id="Capa_1" xmlns="http://www.w3.org/2000/svg" xmlns:xlink="http://www.w3.org/1999/xlink" x="0px" y="0px"
	 viewBox="0 0 512 512" style="enable-background:new 0 0 512 512;" xml:space="preserve">
<g>
	<g>
		<path d="M0,0v512h512V0H0z M162,482H30V350h132V482z M162,320H30V192h132V320z M162,162H30V30h132V162z M320,482H192V350h128V482z
			 M320,320H192V192h128V320z M320,162H192V30h128V162z M482,482H350V350h132V482z M482,320H350V192h132V320z M482,162H350V30h132
			V162z"/>
	</g>
</g>

</svg>
