<?xml version="1.0" encoding="iso-8859-1"?>
<!-- Generator: Adobe Illustrator 19.0.0, SVG Export Plug-In . SVG Version: 6.00 Build 0)  -->
<svg version="1.1" id="Capa_1" xmlns="http://www.w3.org/2000/svg" xmlns:xlink="http://www.w3.org/1999/xlink" x="0px" y="0px"
	 viewBox="0 0 512 512" style="enable-background:new 0 0 512 512;" xml:space="preserve">
<g>
	<g>
		<path d="M440.768,0H71.234c-8.284,0-15,6.716-15,15v385.6V497c0,8.284,6.716,15,15,15h369.533c8.284,0,15-6.716,15-15v-96.4V15
			C455.768,6.716,449.052,0,440.768,0z M425.768,385.6h-59.379c-7.349-54.357-54.047-96.4-110.387-96.4
			c-56.34,0-103.038,42.043-110.387,96.4H86.234V30h339.534V385.6z"/>
	</g>
</g>
<g>
	<g>
		<path d="M256.002,96.4c-34.85,0-63.201,28.352-63.201,63.2c0,34.848,28.351,63.2,63.201,63.2c34.849,0,63.199-28.352,63.199-63.2
			C319.201,124.752,290.85,96.4,256.002,96.4z"/>
	</g>
</g>
</svg>
